<svg xmlns="http://www.w3.org/2000/svg" width="61" height="21" fill="none" viewBox="0 0 61 21"><rect width="59.7" height="20" x=".94" y=".445" fill="#7BFFC3" rx="4"/><path fill="#000" d="M11.18 5.534c.332 2.682 1.841 4.102 4.5 4.398.316.035 1.028.169.795.64q-.008.02-.02.04c-.123.222-.525.276-.743.359-.37.135-.751.247-1.128.363-.586.178-1.312.38-1.774.806-.99.826-1.455 2.055-1.595 3.31-.076.697-.998.729-1.1.009-.17-1.223-.638-2.425-1.59-3.247a4.8 4.8 0 0 0-1.574-.87c-.388-.128-1.935-.301-1.888-.888.042-.527.956-.534 1.306-.613a5.2 5.2 0 0 0 1.622-.646c1.28-.807 1.885-2.225 2.091-3.677.03-.213.232-.54.461-.603.316-.087.603.343.637.62M21.565 14.445v-8.58h3.372c1.872 0 2.844.768 2.844 2.232v.048c0 .9-.432 1.56-1.392 1.836 1.116.228 1.716.864 1.716 2.016v.048c0 1.572-1.032 2.4-3.012 2.4zM23.46 13.1h1.332c.96 0 1.392-.432 1.392-1.212v-.048c0-.792-.432-1.2-1.488-1.2H23.46zm0-3.708h1.164c.936 0 1.308-.336 1.308-1.104V8.24c0-.72-.408-1.044-1.32-1.044H23.46zm8.014 5.052v-8.58h5.592v1.512h-3.66V9.38h2.928v1.416h-2.928v2.136h3.852v1.512zm10.816 0V7.377h-2.315V5.865h6.587v1.512h-2.315v7.068zm5.965 0 2.82-8.58h2.532l2.784 8.58h-2.028l-.588-1.908h-3.108l-.588 1.908zm3.972-6.996-1.14 3.708h2.268z"/></svg>