<svg xmlns="http://www.w3.org/2000/svg" width="24" height="24" fill="none" aria-labelledby="cart-icon" viewBox="0 0 24 24"><desc>Cart</desc><path stroke="#000" stroke-linecap="round" stroke-linejoin="round" stroke-width="1.5" d="M9 22a1 1 0 1 0 0-2 1 1 0 0 0 0 2M20 22a1 1 0 1 0 0-2 1 1 0 0 0 0 2" class="svg-fill"/><path stroke="#000" stroke-linecap="round" stroke-linejoin="round" stroke-width="1.5" d="m5 2 2.68 12.39a2 2 0 0 0 2 1.61h9.72a2 2 0 0 0 2-1.61L23 6H5.865"/><path stroke="#000" stroke-linecap="round" stroke-linejoin="round" stroke-width="1.5" d="M1 2h4l2.68 12.39a2 2 0 0 0 2 1.61h9.72a2 2 0 0 0 2-1.61L23 6H5.865"/></svg>