<svg xmlns="http://www.w3.org/2000/svg" width="108" height="39" fill="none" aria-labelledby="thredup-logo-icon" viewBox="0 0 108 39"><desc>ThredUp | An Online Consignment &amp; Thrift Store</desc><g fill="#000"><path d="M94.912 33.907v.627h-2.497v-.627zm-1.769-1.154h.74v4.592q0 .314.091.47a.47.47 0 0 0 .239.208q.148.05.31.05.123 0 .201-.013l.126-.025.15.665q-.075.029-.21.056-.135.032-.342.032a1.5 1.5 0 0 1-.615-.135 1.2 1.2 0 0 1-.495-.41q-.195-.277-.195-.697zM91.615 34.986l-.665.188a1.2 1.2 0 0 0-.186-.323q-.119-.16-.326-.263c-.207-.103-.314-.104-.53-.104q-.442 0-.737.204-.291.2-.292.511 0 .277.201.437t.627.266l.716.176q.645.156.963.48.315.32.316.825 0 .413-.238.74a1.6 1.6 0 0 1-.659.514q-.423.189-.985.189-.737 0-1.22-.32c-.483-.32-.526-.525-.612-.935l.703-.176q.1.39.38.584.282.195.737.194.517 0 .822-.22.307-.222.307-.533a.56.56 0 0 0-.176-.42q-.175-.172-.54-.257l-.802-.188q-.662-.157-.973-.487a1.18 1.18 0 0 1-.307-.83q0-.409.23-.722.231-.315.63-.493.4-.179.91-.179.714 0 1.122.314.411.314.584.828M84.915 38.725v-4.818h.716v.728h.05q.132-.358.477-.58.345-.223.778-.223a8 8 0 0 1 .388.012v.753a2 2 0 0 0-.172-.028 2 2 0 0 0-.28-.022q-.35 0-.627.147-.273.145-.433.402-.156.255-.156.58v3.05zM82.82 38.725v-4.818h.74v4.818zm.376-5.62a.53.53 0 0 1-.374-.148q-.153-.148-.153-.355c0-.207.05-.256.153-.354q.158-.148.374-.148c.216 0 .267.05.37.148q.156.147.157.354c0 .207-.053.256-.157.355a.52.52 0 0 1-.37.147M81.782 33.907v.628h-2.597v-.628zm-1.82 4.818v-5.483q0-.414.195-.69t.505-.414c.31-.138.426-.138.656-.138q.273 0 .445.044c.172.044.2.056.257.082l-.213.64-.157-.048a1 1 0 0 0-.257-.028q-.367 0-.53.185-.16.185-.16.543v5.307zM73.485 38.826q-.602 0-1.063-.305a2.05 2.05 0 0 1-.722-.866q-.26-.561-.26-1.326 0-.76.26-1.318c.26-.558.415-.66.725-.862s.667-.305 1.073-.305q.47 0 .743.157.276.154.42.352.148.194.23.32h.062V32.3h.74v6.424h-.715v-.74h-.088a5 5 0 0 1-.232.332q-.15.198-.43.355-.279.154-.743.154m.1-.666q.446 0 .753-.232.307-.235.468-.649.16-.418.16-.963 0-.54-.157-.944a1.38 1.38 0 0 0-.464-.634q-.307-.228-.76-.229-.47 0-.784.242a1.45 1.45 0 0 0-.467.65 2.6 2.6 0 0 0-.154.915q0 .515.157.935.16.417.47.665.315.244.778.244M67.24 35.827v2.898h-.741v-4.818h.715v.753h.063q.17-.367.514-.59.345-.225.891-.226.49 0 .856.201.367.198.571.602.204.402.204 1.017v3.061h-.74v-3.011q0-.568-.295-.885-.295-.32-.81-.32-.354 0-.633.154a1.1 1.1 0 0 0-.436.449 1.5 1.5 0 0 0-.16.715M62.94 38.838q-.459 0-.832-.172a1.43 1.43 0 0 1-.593-.505 1.43 1.43 0 0 1-.22-.803q0-.414.164-.672.163-.26.436-.408.273-.146.602-.219.333-.075.668-.12.44-.055.712-.084.276-.03.402-.103.129-.072.128-.251v-.025q0-.465-.254-.722-.25-.257-.762-.257-.53 0-.831.232t-.424.496l-.702-.251q.188-.44.502-.684.315-.248.69-.345.375-.1.74-.1.233 0 .533.056.305.053.587.223.285.17.474.51c.189.34.188.534.188.917v3.174h-.74v-.652h-.038q-.075.156-.251.335c-.176.18-.273.221-.468.305a1.8 1.8 0 0 1-.712.125m.112-.665q.44 0 .74-.172a1.18 1.18 0 0 0 .615-1.02v-.677q-.046.056-.207.103-.156.045-.363.079a17 17 0 0 1-.71.094 3 3 0 0 0-.539.122.93.93 0 0 0-.401.248q-.15.162-.151.445 0 .386.286.584.289.195.73.194M57.043 35.827v2.898h-.74v-6.424h.74v2.359h.063q.17-.374.508-.593.342-.222.91-.223.493 0 .862.198.37.195.574.6.207.4.207 1.022v3.061h-.74v-3.011q0-.575-.298-.888-.295-.317-.819-.317-.363 0-.652.154-.285.154-.452.449a1.46 1.46 0 0 0-.163.715M52.636 38.826q-.602 0-1.063-.305a2.05 2.05 0 0 1-.722-.866q-.26-.561-.26-1.326 0-.76.26-1.318t.725-.862 1.073-.305q.47 0 .743.157.276.154.42.352.147.194.23.32h.062V32.3h.74v6.424h-.715v-.74h-.088a5 5 0 0 1-.232.332q-.15.198-.43.355-.279.154-.743.154m.1-.666q.445 0 .753-.232.307-.235.467-.649.16-.418.16-.963 0-.54-.156-.944a1.37 1.37 0 0 0-.465-.634q-.307-.228-.759-.229-.47 0-.784.242a1.44 1.44 0 0 0-.467.65 2.6 2.6 0 0 0-.154.915q0 .515.157.935.16.417.47.665.315.244.778.244M46.39 35.827v2.898h-.74v-4.818h.715v.753h.063q.17-.367.514-.59.345-.225.89-.226.49 0 .857.201.367.198.571.602.204.402.204 1.017v3.061h-.74v-3.011q0-.568-.295-.885-.296-.32-.81-.32-.354 0-.633.154a1.1 1.1 0 0 0-.436.449 1.5 1.5 0 0 0-.16.715M42.337 38.826a2.1 2.1 0 0 1-1.145-.311 2.1 2.1 0 0 1-.766-.869q-.273-.558-.273-1.305 0-.753.273-1.314.276-.561.766-.872a2.1 2.1 0 0 1 1.145-.31q.651 0 1.141.31.493.31.766.872.276.561.276 1.314 0 .747-.276 1.305a2.1 2.1 0 0 1-.766.869q-.489.31-1.141.31m0-.665q.495 0 .815-.254c.32-.254.371-.393.474-.669q.153-.414.153-.897t-.153-.9a1.5 1.5 0 0 0-.474-.674q-.32-.258-.815-.258-.496 0-.816.258a1.5 1.5 0 0 0-.474.674 2.6 2.6 0 0 0-.153.9q0 .483.153.897.154.415.474.668c.32.254.485.255.816.255M37.403 38.826q-.678 0-1.167-.32a2.1 2.1 0 0 1-.753-.882 3 3 0 0 1-.264-1.283q0-.734.27-1.295.273-.565.76-.882.488-.32 1.141-.32.508 0 .916.189.408.187.668.527.26.339.323.79h-.74a1.15 1.15 0 0 0-.377-.583q-.288-.258-.777-.258a1.3 1.3 0 0 0-.76.226 1.47 1.47 0 0 0-.505.63q-.178.405-.178.951 0 .559.175.973.18.414.502.643.327.228.765.229.29 0 .524-.1a1.08 1.08 0 0 0 .63-.741h.741a1.71 1.71 0 0 1-.96 1.308q-.401.198-.934.198M32.324 38.826q-.697 0-1.201-.308a2.06 2.06 0 0 1-.775-.866q-.27-.558-.27-1.298c0-.74.09-.929.27-1.305q.273-.568.759-.885a2.04 2.04 0 0 1 1.142-.32q.376 0 .743.126.368.126.668.408.302.28.48.74c.178.46.18.686.18 1.135v.314h-3.715v-.64h2.961q0-.408-.163-.727a1.23 1.23 0 0 0-.458-.505 1.3 1.3 0 0 0-.696-.186q-.442 0-.766.22-.32.216-.492.565c-.172.349-.172.48-.172.746v.427q0 .546.188.925.19.376.53.574.339.195.787.195.292 0 .527-.082.238-.084.411-.25a1.14 1.14 0 0 0 .267-.421l.715.2a1.6 1.6 0 0 1-.38.64 1.85 1.85 0 0 1-.658.427q-.393.15-.882.15M29.102 34.986l-.665.188a1.2 1.2 0 0 0-.185-.323.9.9 0 0 0-.326-.263 1.2 1.2 0 0 0-.53-.104q-.442 0-.738.204-.291.2-.291.511 0 .277.2.437t.628.266l.715.176q.646.156.963.48.317.32.317.825 0 .413-.239.74a1.6 1.6 0 0 1-.658.514q-.424.189-.985.189-.738 0-1.22-.32-.484-.32-.612-.935l.702-.176q.1.39.38.584.282.195.737.194.518 0 .822-.22.307-.222.307-.533a.56.56 0 0 0-.175-.42q-.176-.172-.54-.257l-.803-.188q-.661-.157-.972-.487a1.18 1.18 0 0 1-.308-.83q0-.409.23-.722a1.56 1.56 0 0 1 .63-.493q.401-.179.91-.179.714 0 1.122.314.411.314.584.828M19.09 36.969l-.012-.916h.15l2.108-2.146h.916l-2.246 2.271h-.063zm-.69 1.756v-6.424h.74v6.424zm3.061 0-1.882-2.384.527-.514 2.297 2.898zM13.973 35.827v2.898h-.74v-4.818h.715v.753h.063q.17-.367.514-.59.345-.225.891-.226.49 0 .857.201.367.198.57.602.204.402.204 1.017v3.061h-.74v-3.011q0-.568-.295-.885-.294-.32-.809-.32-.354 0-.634.154a1.1 1.1 0 0 0-.436.449 1.5 1.5 0 0 0-.16.715M11.137 38.725v-4.818h.74v4.818zm.376-5.62a.53.53 0 0 1-.373-.148q-.154-.148-.154-.355c0-.207.052-.256.154-.354q.158-.148.373-.148c.215 0 .268.05.37.148q.157.147.157.354c0 .207-.052.256-.156.355a.52.52 0 0 1-.37.147M6.659 35.827v2.898h-.74v-6.424h.74v2.359h.062q.17-.374.508-.593.343-.222.91-.223.492 0 .863.198.37.195.574.6.207.4.207 1.022v3.061h-.74v-3.011q0-.575-.299-.888-.294-.317-.818-.317-.364 0-.653.154-.285.154-.451.449a1.46 1.46 0 0 0-.163.715M0 32.991v-.69h4.818v.69h-2.02v5.734H2.02v-5.734zM39.282 15.089c2.461-.46 4.12-1.64 4.036-5.236-.112-4.694-3.006-5.622-8.273-5.622h-4.609v20.832h4.53v-8.29h1.065c1.545 0 2.2.84 2.3 2.812.132 2.507.228 4.68.518 5.48h4.706c-.486-.944-.527-2.747-.665-5.515-.175-3.53-.875-3.917-3.608-4.458zm-3.497-1.844h-.819V7.756h.82c2.346 0 3.034.907 3.034 2.639 0 2.423-.808 2.847-3.035 2.847zM0 7.753h3.59V25.06h4.548V7.753h3.69V4.228H0zm22.497 5.045h-4.094v-8.57h-4.547V25.06h4.547v-8.734h4.094v8.734H27.4V4.228h-4.902zm27.773 3.348h4.287v-3.52H50.27V7.754h5.57V4.228H45.722V25.06h10.13v-3.525h-5.58v-5.386zM62.88 4.228h-4.524V25.06h4.524c6.718 0 8.758-3.734 8.758-10.195v-.439c0-6.99-1.955-10.195-8.758-10.195zm.945 17.233h-.919V7.827h.919c2.8 0 3.415 2.17 3.415 6.667 0 4.426-.618 6.97-3.415 6.97zM95.675.697h-5.28V21.53h4.568v-6.817h.709c5.422 0 7.857-2.4 7.857-7.024 0-4.623-2.517-6.99-7.854-6.99m-.077 10.49h-.632V4.196h.632c2.38 0 3.51.904 3.51 3.525s-1.125 3.466-3.507 3.466zm-12.586 3.386c0 2.353-.315 3.499-2.042 3.499s-2.042-1.146-2.042-3.499V.697h-4.7V14.03c0 5.244 1.3 7.81 6.742 7.81s6.742-2.566 6.742-7.81V.697h-4.697v13.876z"/></g></svg>